<mxfile host="65bd71144e">
    <diagram id="DWuA13XTXlVyFEDknyCR" name="Page-1">
        <mxGraphModel dx="1417" dy="917" grid="1" gridSize="10" guides="1" tooltips="1" connect="1" arrows="1" fold="1" page="1" pageScale="1" pageWidth="1200" pageHeight="1920" math="0" shadow="0">
            <root>
                <mxCell id="0"/>
                <mxCell id="1" parent="0"/>
                <mxCell id="2" value="" style="swimlane;startSize=20;horizontal=0;childLayout=treeLayout;horizontalTree=1;resizable=0;containerType=tree;" vertex="1" parent="1">
                    <mxGeometry x="90" y="230" width="620" height="638" as="geometry"/>
                </mxCell>
                <mxCell id="3" value="&lt;span style=&quot;font-weight: 700 ; background-color: rgb(255 , 255 , 255)&quot;&gt;Cloud Interconnect&lt;/span&gt;" style="whiteSpace=wrap;html=1;" vertex="1" parent="2">
                    <mxGeometry x="40" y="299.5" width="100" height="40" as="geometry"/>
                </mxCell>
                <mxCell id="4" value="&lt;font color=&quot;#ffffff&quot;&gt;&lt;b&gt;Dedicated interconnect&lt;/b&gt;&lt;/font&gt;" style="whiteSpace=wrap;html=1;fillColor=#999999;" vertex="1" parent="2">
                    <mxGeometry x="190" y="140" width="100" height="40" as="geometry"/>
                </mxCell>
                <mxCell id="5" value="" style="edgeStyle=elbowEdgeStyle;elbow=horizontal;html=1;rounded=0;" edge="1" parent="2" source="3" target="4">
                    <mxGeometry relative="1" as="geometry"/>
                </mxCell>
                <mxCell id="8" value="" style="edgeStyle=elbowEdgeStyle;elbow=horizontal;html=1;rounded=0;" edge="1" target="9" source="4" parent="2">
                    <mxGeometry relative="1" as="geometry">
                        <mxPoint x="230" y="-418.5" as="sourcePoint"/>
                    </mxGeometry>
                </mxCell>
                <mxCell id="9" value="Provides direct physical connections between your on-premise network and Google's network" style="fillColor=#330066;align=center;whiteSpace=wrap;fontStyle=1;fontColor=#FFFFFF;" vertex="1" parent="2">
                    <mxGeometry x="340" y="20" width="260" height="70" as="geometry"/>
                </mxCell>
                <mxCell id="10" value="" style="edgeStyle=elbowEdgeStyle;elbow=horizontal;html=1;rounded=0;" edge="1" target="11" source="4" parent="2">
                    <mxGeometry relative="1" as="geometry">
                        <mxPoint x="380" y="-418.5" as="sourcePoint"/>
                    </mxGeometry>
                </mxCell>
                <mxCell id="11" value="Enables you to transfer large amount of data between networks, which can be more cost-effective than additional bandwidth over the public network" style="fillColor=#009900;align=center;whiteSpace=wrap;fontStyle=1;fontColor=#FFFFFF;" vertex="1" parent="2">
                    <mxGeometry x="340" y="130" width="260" height="70" as="geometry"/>
                </mxCell>
                <mxCell id="12" value="" style="edgeStyle=elbowEdgeStyle;elbow=horizontal;html=1;rounded=0;" edge="1" target="13" source="4" parent="2">
                    <mxGeometry relative="1" as="geometry">
                        <mxPoint x="380" y="-348.5" as="sourcePoint"/>
                    </mxGeometry>
                </mxCell>
                <mxCell id="13" value="Need to provision a cross-connect between Google network and your own router in a common co-location facility" style="fillColor=#0066CC;align=center;whiteSpace=wrap;fontStyle=1;fontColor=#FFFFFF;" vertex="1" parent="2">
                    <mxGeometry x="340" y="240" width="260" height="60" as="geometry"/>
                </mxCell>
                <mxCell id="14" value="" style="edgeStyle=elbowEdgeStyle;elbow=horizontal;html=1;rounded=0;" edge="1" target="15" source="3" parent="2">
                    <mxGeometry relative="1" as="geometry">
                        <mxPoint x="230" y="-223.5" as="sourcePoint"/>
                    </mxGeometry>
                </mxCell>
                <mxCell id="15" value="&lt;font color=&quot;#ffffff&quot;&gt;&lt;b&gt;Partner Interconnect&lt;/b&gt;&lt;/font&gt;" style="whiteSpace=wrap;html=1;fillColor=#999999;" vertex="1" parent="2">
                    <mxGeometry x="190" y="459" width="100" height="40" as="geometry"/>
                </mxCell>
                <mxCell id="16" value="" style="edgeStyle=elbowEdgeStyle;elbow=horizontal;html=1;rounded=0;" edge="1" target="17" source="15" parent="2">
                    <mxGeometry relative="1" as="geometry">
                        <mxPoint x="230" y="-15.5" as="sourcePoint"/>
                    </mxGeometry>
                </mxCell>
                <mxCell id="17" value="&lt;font color=&quot;#ffffff&quot;&gt;&lt;b&gt;Nowhere near one of those locations where you can create dedicated connections&lt;/b&gt;&lt;/font&gt;" style="whiteSpace=wrap;html=1;fillColor=#0066CC;" vertex="1" parent="2">
                    <mxGeometry x="340" y="340" width="260" height="50" as="geometry"/>
                </mxCell>
                <mxCell id="18" value="" style="edgeStyle=elbowEdgeStyle;elbow=horizontal;html=1;rounded=0;" edge="1" target="19" source="15" parent="2">
                    <mxGeometry relative="1" as="geometry">
                        <mxPoint x="380" y="84.5" as="sourcePoint"/>
                    </mxGeometry>
                </mxCell>
                <mxCell id="19" value="&lt;font color=&quot;#ffffff&quot;&gt;&lt;b&gt;Provides connectivity between your on-premises network and your VPC network through a supported service provider&lt;/b&gt;&lt;/font&gt;" style="whiteSpace=wrap;html=1;fillColor=#330066;" vertex="1" parent="2">
                    <mxGeometry x="340" y="558" width="260" height="60" as="geometry"/>
                </mxCell>
                <mxCell id="22" value="" style="edgeStyle=elbowEdgeStyle;elbow=horizontal;html=1;rounded=0;" edge="1" target="23" source="15" parent="2">
                    <mxGeometry relative="1" as="geometry">
                        <mxPoint x="380" y="407" as="sourcePoint"/>
                    </mxGeometry>
                </mxCell>
                <mxCell id="23" value="&lt;font color=&quot;#ffffff&quot;&gt;&lt;b&gt;If your data center is in the physical location that cananot reach a Dedicated Interconnect co-loaction facility or if your data needs don't warrant a Dedicated Interconnect&lt;/b&gt;&lt;/font&gt;" style="whiteSpace=wrap;html=1;fillColor=#0066CC;" vertex="1" parent="2">
                    <mxGeometry x="340" y="434" width="260" height="80" as="geometry"/>
                </mxCell>
            </root>
        </mxGraphModel>
    </diagram>
</mxfile>